<?xml version="1.0" encoding="UTF-8"?>
<svg id="Layer_2" xmlns="http://www.w3.org/2000/svg" viewBox="0 0 234.47 558.46">
  <defs>
    <style>
      .cls-1 {
        fill: #010101;
      }

      .cls-2 {
        fill: #7b7878;
      }

      .cls-3 {
        fill: #989595;
      }

      .cls-4 {
        fill: #959292;
      }

      .cls-5 {
        fill: #403e3d;
      }

      .cls-6 {
        fill: #7d7a7a;
      }
    </style>
  </defs>
  <g id="Layer_1-2" data-name="Layer_1">
    <g id="iUfd7v.tif">
      <g>
        <path class="cls-1" d="M112.04.02c3.58,0,7.16-.01,10.74-.02,17.65,5.93,22.7,12.97,22.98,31.99,0,.51-.25,1.18,0,1.5,8.44,11.33-2.65,18.57-6.15,26.99-4.42,10.64-.99,23.16,9.61,27.56,3.94,1.64,8.12,3.23,12.31,3.64,22.07,2.15,30.13,16.18,31.04,37.07.74,17.03-1.02,34.14,1.68,51.11,1.48,9.28,3.15,18.52,7.59,26.95,5.59,10.63,7.05,22.26,7.48,33.96.55,14.69,4.02,27.97,14.26,39.12,4.62,5.03,8.07,11.11,10.26,17.67,1.17,3.51,1.29,7.04-4.37,5.31-.95-1.45-1.89-3.59-3.89-2.65-1.72.81-.36,2.61.04,3.97,1.14,3.88,2.45,7.73,3.35,11.67.41,1.77,1.53,4.37-.91,5.34-2.31.92-3.53-1.38-4.55-3.1-.77-1.29-1.24-2.76-1.84-4.15-.83.39-1.31-2.68-1.84-.55-1.17,4.67.39,9.62-.89,14.36-4.79,2.29-4.04-2.13-4.54-4.16-1.07-4.34-1.57-8.82-3.04-13.2-.21,4.16-.27,8.34-.7,12.48-.19,1.84-.14,4.71-2.67,4.73-2.34.02-2.61-2.61-3.01-4.58-1.27-1.84-.29-4.01-.87-5.93-.17-.57.49-1.52-.37-1.6-.32-.03-.88,1.12-1.45,1.62-.5,1.64-.49,3.97-2.84,3.84-1.9-.11-1.85-2.14-1.9-3.61-.36-10.44-1.57-20.95-.73-31.29.82-10.04-1.95-18.61-6.66-26.87-10.69-18.75-19.2-38.06-19.06-60.35.04-5.84-1.05-11.95-5.46-19.32-.76,28.32-5.81,54.32,4.34,80.12,7.42,18.85,6.43,38.72,4.02,58.8-3.86,32.08-11.68,63.62-12.74,96.05-.06,1.75-.13,3.68.51,5.23,8.6,20.82,3.75,41.02-2.59,61.17-2.67,8.49-5.59,16.91-7.92,25.49-3.35,12.37-2.76,24.39,2.47,36.49,4.38,10.14,2.07,13.07-8.96,14.17-4.94.49-9.92.55-14.88.86-8.34.52-10.36-1.2-7.59-8.61,5.14-13.72,5.77-28.36,9.59-42.31,2.67-9.76,1.98-19.75,1.01-29.64-1.34-13.75-1.89-27.44.5-41.13,1.48-8.46-.19-16.81-1.76-25.04-5.41-28.28-8.97-56.79-11.32-85.48-.17-2.12,1.23-5.66-3.2-5.4-3.89.23-2.31,3.44-2.45,5.25-2.37,31-6.54,61.74-12.35,92.28-.76,3.97-1.48,8.21-.92,12.13,2.78,19.59.95,39.11.25,58.71-.66,18.43,5.2,36.1,9.14,53.94.77,3.46,2.01,6.82,2.71,10.29.71,3.48-1.38,5.91-4.5,5.54-8.14-.97-16.41-.2-24.47-2.74-4.55-1.44-5.59-3.75-4.7-7.81.43-1.97.83-4.02,1.69-5.82,6.54-13.53,5.04-27.05.78-40.87-5.23-16.97-11.65-33.65-13.48-51.55-.61-5.93-1.02-12.08,1.03-17.42,6.25-16.27,3.21-32.76,1.08-48.86-2.84-21.42-6.34-42.78-9.77-64.12-3.85-23.87-1.62-46.71,6.72-69.06,3.12-8.35,3.8-16.82,3.59-25.48-.34-14.26-.54-28.54-2.67-44.53-3.7,7-4.96,13.38-4.95,19.5.04,22-8.49,41.03-18.96,59.55-4.7,8.31-7.27,16.89-6.53,26.88.76,10.34-.54,20.83-.99,31.26-.06,1.42.24,3.54-1.8,3.6-2.21.06-2.48-2.11-2.87-3.84-.32-.36-.66-.71-.84-1.15-.53-1.26-.61-.39-.84.14-.95,2.22.28,4.8-1.15,6.94-.32,1.98-.37,4.62-2.94,4.53-2.63-.09-2.39-2.95-2.59-4.78-.46-4.13-.55-8.3-1.55-12.46-.72,4.7-1.22,9.46-2.25,14.09-.44,1.97-.67,5.61-4.59,3.29-1.63-4.55.62-9.44-1.27-13.96-.05-.11-.46-.15-.66-.09-.22.07-.4.29-.6.44-1.69,2.88-2.59,8.4-6.46,6.79-3.61-1.5-.62-6.32.16-9.5,1.07-4.38,2.83-8.59,4.29-12.88.98-.88,1.27-1.95.39-2.97-.49-.57-1.17-.27-1.49.47-1.72,3.69-4.27,8.71-8.28,6.72-4.35-2.16-.46-7.05,1.09-9.95,3.2-6.02,7.02-11.81,11.32-17.11,5.79-7.14,9.46-14.89,10.1-24.12,1.29-18.54,4.65-36.34,11.92-53.87,8.53-20.56,5.61-43.11,5.88-64.94.1-7.93.77-15.66,4.02-23.07,3.97-9.08,10.56-14.63,20.23-16.58,6.44-1.3,12.95-2.19,19.07-4.87,10.27-4.5,15.36-16.88,9.84-26.63-2.85-5.04-4.02-10.84-7.98-15.41-2.21-2.55-3.63-6.4.6-9.23,2.17-1.45,1.07-3.72,1.09-5.6.22-18.02,5.59-25.43,22.87-31.32Z"/>
        <path class="cls-2" d="M218.92,327.78v-18.69c1.89,1.26,2.59,2.9,2.73,4.88-3.59,4.07,1.17,9.8-2.73,13.81Z"/>
        <path class="cls-3" d="M13.38,314.1c-.05-1.57.46-2.83,2.52-3.88,0,6.05,0,11.76,0,17.48-3.64-4.01.25-9.43-2.52-13.6Z"/>
        <path class="cls-6" d="M29.83,323.03v-11.76c2.27,2.13,3.16,3.7,2.83,5.82-2.4,1.28-.86,4.45-2.83,5.94Z"/>
        <path class="cls-4" d="M202.25,317.14c.54-1.7,1.07-3.39,1.61-5.09.36.11.72.21,1.08.32v10.67c-.9-1.97-1.8-3.94-2.69-5.91Z"/>
        <path class="cls-5" d="M10.27,296.01c0-1.38,1.08-3.07,1.91-2.36,1.78,1.52,1.07,3.49-.81,4.87-.37-.83-.73-1.67-1.1-2.5Z"/>
      </g>
    </g>
  </g>
</svg>