<svg width="238" height="562" viewBox="0 0 238 562" fill="none" xmlns="http://www.w3.org/2000/svg">
<path d="M237.94 561.86H0V0H237.94V561.86ZM67.28 182.18C68.39 182.28 69.5 182.38 70.62 182.48C71.33 190.52 72.13 198.55 72.72 206.6C73.98 223.71 74.31 240.55 67.94 257.16C62.15 272.26 59.53 288.28 61.44 304.54C63.91 325.56 66.71 346.54 69.95 367.45C73.5 390.36 78.13 413.02 71.3 436.3C69.39 442.81 70.29 450.64 71.64 457.52C73.9 469 77.1 480.34 80.72 491.48C86.66 509.73 91.41 527.75 82.48 546.49C79.96 551.77 82.41 555.67 88.05 556.58C94.55 557.63 101.16 558.28 107.73 558.35C109.27 558.37 111.86 555.5 112.14 553.68C112.54 551.1 111.32 548.25 110.68 545.54C105.92 525.47 100.82 505.54 101.31 484.57C101.72 467.03 100.95 449.47 100.76 431.92C100.73 429.63 100.92 427.33 101.21 425.06C105.46 392.46 109.68 359.85 114.17 327.29C114.46 325.16 116.97 323.34 118.44 321.37C119.73 323.54 121.88 325.59 122.18 327.89C125.46 352.92 127.59 378.14 131.82 403C134.72 420.04 136.56 436.71 133.61 453.84C132.85 458.27 133.14 463.08 133.91 467.55C138.48 493.99 132.51 519.34 125.92 544.52C122.48 557.68 122.85 558.87 135.99 558.25C138.52 558.13 141.08 558.02 143.58 557.63C155.02 555.84 156.93 553.02 152.5 542.34C147.3 529.82 148.08 517.41 151.67 504.89C154.34 495.57 157.51 486.4 160.29 477.12C165.64 459.27 168.72 441.39 162.03 423.04C160.79 419.63 160.98 415.42 161.45 411.7C164.51 387.18 167.61 362.65 171.11 338.19C175.11 310.25 178.49 282.46 168.01 255.06C158.96 231.39 163.5 207.25 166.12 183.22C166.15 182.93 166.87 182.71 168.79 181.48C170.29 187.74 172.72 193.43 172.84 199.16C173.32 221.31 180.76 241.03 191.8 259.78C196.8 268.26 199.3 277.35 198.86 287.51C198.44 297.16 199.51 306.87 200 316.55C200.03 317.11 200.74 317.64 201.24 318.33C202.57 316.56 203.71 315.05 205.53 312.64C206.3 317.81 206.9 321.85 207.5 325.89C208.12 325.9 208.74 325.91 209.36 325.92C210.22 320.76 211.08 315.6 211.93 310.44C212.48 310.48 213.04 310.51 213.59 310.55C214.7 315.73 215.8 320.91 216.91 326.1C217.57 326.04 218.24 325.97 218.9 325.91C219.13 320.92 219.37 315.93 219.7 308.9C222.85 313.99 224.73 317.04 226.62 320.1C227.33 319.82 228.04 319.55 228.75 319.27C226.93 311.74 225.1 304.22 222.86 294.96C227.13 298.49 229.78 300.69 232.43 302.89C233.31 302.18 234.18 301.48 235.06 300.77C230.48 293.42 226.51 285.58 221.18 278.83C214.07 269.83 210.87 259.91 209.56 248.69C208.12 236.36 207.16 223.48 202.76 212.1C196.28 195.37 192.5 178.54 192.2 160.76C192.01 149.28 192.22 137.78 191.72 126.31C190.92 107.88 182.46 98.39 164.72 94.69C159.28 93.55 153.85 91.97 148.7 89.89C141.7 87.06 138.5 81.56 137.89 73.81C137.12 64.17 142.12 56.79 145.78 48.76C146.89 46.33 147.93 43.53 147.79 40.96C147.55 36.49 146.11 32.11 145.61 27.64C143.45 8.62 126.08 -2.87 108.64 4.32C102.96 6.66 96.41 11.46 94.24 16.78C90.64 25.61 90.24 35.76 88.59 45.37C88.48 45.99 89.18 46.75 89.52 47.43C91.58 51.51 94.03 55.45 95.65 59.7C102.42 77.42 96.79 88.22 81.96 92.17C78.77 93.02 75.58 93.91 72.34 94.58C53.22 98.54 44.91 108.27 44.45 127.79C44.16 140.04 45.26 152.41 43.86 164.51C42.23 178.58 38.75 192.46 35.71 206.35C33.33 217.22 29.17 227.84 28 238.81C26.26 255.12 23.82 270.59 11.93 283.09C8.83 286.34 6.74 290.65 4.62 294.7C3.49 296.87 3.28 299.53 2.65 301.96C3.25 302.27 3.86 302.58 4.46 302.9C6.9 300.64 9.34 298.38 11.78 296.12C12.26 296.32 12.75 296.53 13.23 296.73C11.37 303.97 9.51 311.21 7.65 318.45L9.65 319.17C11.65 316.71 13.65 314.25 16.56 310.67C16.91 316.85 17.18 321.45 17.44 326.04C18.09 326.07 18.74 326.1 19.39 326.13C20.51 320.82 21.63 315.51 22.75 310.2C23.42 310.27 24.08 310.34 24.75 310.42C25.48 315.54 26.21 320.65 26.94 325.77C27.56 325.72 28.19 325.66 28.81 325.61C29.4 321.29 29.98 316.98 30.81 310.92C32.72 314.43 33.73 316.29 35.92 320.3C36.58 308.72 38.07 299.36 37.42 290.16C36.51 277.46 40.49 266.67 46.57 256.06C56.59 238.57 63.14 220.04 63.54 199.5C63.65 193.71 65.94 187.96 67.22 182.19L67.28 182.18Z" fill="white"/>
<path d="M67.28 182.18C65.99 187.95 63.71 193.7 63.6 199.49C63.2 220.02 56.66 238.55 46.63 256.05C40.55 266.66 36.58 277.45 37.48 290.15C38.14 299.35 36.65 308.71 35.98 320.29C33.79 316.28 32.78 314.42 30.87 310.91C30.05 316.97 29.46 321.29 28.87 325.6C28.25 325.65 27.62 325.71 27 325.76C26.27 320.64 25.54 315.53 24.81 310.41C24.14 310.34 23.48 310.27 22.81 310.19C21.69 315.5 20.57 320.81 19.45 326.12C18.8 326.09 18.15 326.06 17.5 326.03C17.24 321.44 16.97 316.84 16.62 310.66C13.71 314.24 11.71 316.7 9.70996 319.16L7.70996 318.44C9.56996 311.2 11.43 303.96 13.29 296.72C12.81 296.52 12.32 296.31 11.84 296.11C9.39996 298.37 6.95996 300.63 4.51996 302.89C3.91996 302.58 3.30996 302.27 2.70996 301.95C3.33996 299.51 3.53996 296.85 4.67996 294.69C6.79996 290.64 8.89996 286.33 11.99 283.08C23.88 270.58 26.32 255.11 28.06 238.8C29.23 227.83 33.39 217.22 35.77 206.34C38.81 192.46 42.29 178.58 43.92 164.5C45.32 152.4 44.22 140.03 44.51 127.78C44.97 108.26 53.29 98.5303 72.4 94.5703C75.63 93.9003 78.82 93.0103 82.02 92.1603C96.85 88.2103 102.48 77.4103 95.71 59.6903C94.09 55.4403 91.64 51.5003 89.58 47.4203C89.24 46.7403 88.55 45.9803 88.65 45.3603C90.3 35.7503 90.7 25.6003 94.3 16.7703C96.46 11.4603 103.02 6.66031 108.7 4.31031C126.13 -2.87969 143.51 8.60031 145.67 27.6303C146.18 32.1003 147.61 36.4803 147.85 40.9503C147.99 43.5203 146.95 46.3203 145.84 48.7503C142.18 56.7803 137.18 64.1603 137.95 73.8003C138.57 81.5603 141.76 87.0603 148.76 89.8803C153.91 91.9603 159.34 93.5503 164.78 94.6803C182.52 98.3803 190.98 107.87 191.78 126.3C192.28 137.77 192.07 149.27 192.26 160.75C192.55 178.53 196.34 195.35 202.82 212.09C207.23 223.47 208.18 236.35 209.62 248.68C210.93 259.91 214.13 269.82 221.24 278.82C226.58 285.57 230.54 293.41 235.12 300.76C234.24 301.47 233.37 302.17 232.49 302.88C229.84 300.68 227.18 298.49 222.92 294.95C225.16 304.21 226.99 311.73 228.81 319.26C228.1 319.54 227.39 319.81 226.68 320.09C224.79 317.04 222.91 313.99 219.76 308.89C219.43 315.91 219.19 320.9 218.96 325.9C218.3 325.96 217.63 326.03 216.97 326.09C215.86 320.91 214.76 315.73 213.65 310.54C213.1 310.5 212.54 310.47 211.99 310.43C211.13 315.59 210.27 320.75 209.42 325.91C208.8 325.9 208.18 325.89 207.56 325.88C206.96 321.84 206.36 317.8 205.59 312.63C203.77 315.04 202.63 316.55 201.3 318.32C200.8 317.62 200.09 317.1 200.06 316.54C199.57 306.86 198.5 297.15 198.92 287.5C199.36 277.34 196.85 268.25 191.86 259.77C180.82 241.02 173.38 221.29 172.9 199.15C172.77 193.41 170.35 187.73 168.85 181.47C166.92 182.7 166.21 182.92 166.18 183.21C163.56 207.24 159.02 231.38 168.07 255.05C178.55 282.45 175.17 310.25 171.17 338.18C167.67 362.64 164.57 387.17 161.51 411.69C161.05 415.41 160.85 419.62 162.09 423.03C168.78 441.38 165.69 459.26 160.35 477.11C157.57 486.4 154.4 495.57 151.73 504.88C148.14 517.4 147.35 529.82 152.56 542.33C157 553 155.08 555.83 143.64 557.62C141.14 558.01 138.59 558.12 136.05 558.24C122.91 558.86 122.54 557.67 125.98 544.51C132.57 519.32 138.54 493.98 133.97 467.54C133.2 463.07 132.9 458.26 133.67 453.83C136.62 436.7 134.78 420.03 131.88 402.99C127.65 378.13 125.52 352.91 122.24 327.88C121.94 325.58 119.79 323.53 118.5 321.36C117.02 323.33 114.52 325.15 114.23 327.28C109.73 359.85 105.52 392.45 101.27 425.05C100.97 427.32 100.79 429.62 100.82 431.91C101.01 449.46 101.78 467.02 101.37 484.56C100.88 505.53 105.98 525.46 110.74 545.53C111.38 548.24 112.6 551.1 112.2 553.67C111.91 555.5 109.32 558.36 107.79 558.34C101.22 558.27 94.61 557.62 88.11 556.57C82.47 555.66 80.03 551.76 82.54 546.48C91.47 527.75 86.72 509.72 80.78 491.47C77.16 480.34 73.95 468.99 71.7 457.51C70.35 450.63 69.45 442.8 71.36 436.29C78.19 413.01 73.55 390.36 70.01 367.44C66.77 346.53 63.97 325.54 61.5 304.53C59.59 288.27 62.21 272.24 68 257.15C74.37 240.55 74.04 223.7 72.78 206.59C72.19 198.54 71.39 190.51 70.68 182.47C69.57 182.37 68.46 182.27 67.34 182.17L67.28 182.18Z" fill="black"/>
</svg>
