<svg width="24" height="24" viewBox="0 0 24 24" fill="none" xmlns="http://www.w3.org/2000/svg">
<circle cx="12" cy="12" r="11.5" stroke="black"/>
<path d="M12.8 9.79C12.926 9.79 12.926 9.944 12.926 10.014V15.152C12.926 16.244 13.64 16.216 13.64 16.678C13.64 16.916 13.514 17.014 13.22 17.014H10.826C10.532 17.014 10.406 16.916 10.406 16.678C10.406 16.23 11.12 16.244 11.12 15.152V12.408C11.12 11.316 10.406 11.33 10.406 10.868C10.406 10.644 10.532 10.532 10.826 10.532H11.12C12.338 10.532 12.506 9.79 12.8 9.79ZM10.7 8.11C10.7 7.452 11.246 6.906 11.904 6.906C12.562 6.906 13.108 7.452 13.108 8.11C13.108 8.768 12.562 9.314 11.904 9.314C11.246 9.314 10.7 8.768 10.7 8.11Z" fill="black"/>
</svg>
