<svg width="110" height="37" viewBox="0 0 110 37" fill="none" xmlns="http://www.w3.org/2000/svg">
<path d="M11.2188 25.6818L11.2188 5" stroke="black" stroke-width="2"/>
<path d="M21.2188 16.0923L11.1093 26.2018L0.999807 16.0923" stroke="black" stroke-width="2"/>
<path d="M41.6517 5.98C44.3957 5.98 45.7397 7.184 46.7197 7.184C47.4757 7.184 47.8397 6.624 48.3437 6.624C48.8197 6.624 48.9597 7.072 49.0157 7.464L49.9117 12.588C50.0517 13.428 49.6317 13.904 49.0997 13.904C47.1397 13.904 47.3917 7.66 42.2397 7.66C40.1397 7.66 38.9637 8.864 38.9637 10.628C38.9637 15.304 50.3877 15.052 50.3877 21.268C50.3877 24.684 47.2517 26.448 43.4997 26.448C39.7757 26.448 38.5717 25.244 37.5917 25.244C36.8357 25.244 36.4717 25.832 35.9677 25.832C35.4917 25.832 35.3517 25.384 35.2957 24.992L34.3997 19.868C34.2597 19.028 34.6797 18.552 35.2117 18.552C37.1717 18.552 36.8917 24.992 42.9397 24.992C45.1237 24.992 46.6077 24.012 46.6077 22.472C46.6077 17.684 35.2117 18.552 35.0997 11.44C35.0717 8.864 37.1997 5.98 41.6517 5.98ZM59.1406 26.476C54.7446 26.476 52.0006 23.396 52.0006 19.028C52.0006 14.912 54.7446 11.58 59.1406 11.58C63.0886 11.58 64.6566 14.408 64.6566 15.808C64.6566 17.124 64.0406 17.544 63.0886 17.544C62.3046 17.544 61.4086 17.096 61.4086 15.444C61.4086 14.408 60.7366 13.26 59.1406 13.26C57.0406 13.26 55.7806 14.8 55.7806 18.188C55.7806 22.808 57.9086 24.152 59.9806 24.152C62.4166 24.152 63.3406 22.304 64.0686 22.304C64.3766 22.304 64.4606 22.584 64.4606 22.808C64.4606 24.152 62.4166 26.476 59.1406 26.476ZM70.8334 11.58H70.8614C71.1134 11.58 71.1134 11.888 71.1134 12.028V13.708C72.0654 12.448 73.3534 11.58 74.8934 11.58C76.8534 11.58 77.8894 12.924 77.8894 14.464C77.8894 15.22 77.5814 16.452 75.8734 16.452C74.7814 16.452 74.3894 15.724 74.3894 15.052C74.3894 14.52 74.3334 14.016 73.5494 14.016C71.7574 14.016 71.1134 15.892 71.1134 17.04V22.304C71.1134 24.488 72.5414 24.46 72.5414 25.356C72.5414 25.832 72.2894 26.028 71.7014 26.028H66.9134C66.3254 26.028 66.0734 25.832 66.0734 25.356C66.0734 24.46 67.5014 24.488 67.5014 22.304V16.816C67.5014 14.632 66.0734 14.66 66.0734 13.764C66.0734 13.288 66.3254 13.092 66.9134 13.092H67.5014C69.9094 13.092 70.2734 11.58 70.8334 11.58ZM85.9504 26.448C81.5824 26.448 78.8104 23.144 78.8104 19.028C78.8104 14.884 81.5544 11.58 85.9504 11.58C90.3464 11.58 93.0904 14.912 93.0904 19.028C93.0904 23.144 90.3464 26.448 85.9504 26.448ZM82.5904 19.028C82.5904 22.444 83.7944 24.768 85.9504 24.768C88.1064 24.768 89.3104 22.416 89.3104 19.028C89.3104 15.64 88.1064 13.26 85.9504 13.26C83.2904 13.26 82.5904 15.612 82.5904 19.028ZM99.1438 4.916C99.3958 4.916 99.3958 5.224 99.3958 5.364V22.304C99.3958 24.488 100.824 24.432 100.824 25.356C100.824 25.832 100.572 26.028 99.9838 26.028H95.1958C94.6078 26.028 94.3558 25.832 94.3558 25.356C94.3558 24.46 95.7838 24.488 95.7838 22.304V10.152C95.7838 7.968 94.3558 7.996 94.3558 7.1C94.3558 6.624 94.6078 6.428 95.1958 6.428H95.7838C98.2198 6.428 98.5558 4.916 99.1438 4.916ZM106.629 4.916C106.881 4.916 106.881 5.224 106.881 5.364V22.304C106.881 24.488 108.309 24.432 108.309 25.356C108.309 25.832 108.057 26.028 107.469 26.028H102.681C102.093 26.028 101.841 25.832 101.841 25.356C101.841 24.46 103.269 24.488 103.269 22.304V10.152C103.269 7.968 101.841 7.996 101.841 7.1C101.841 6.624 102.093 6.428 102.681 6.428H103.269C105.705 6.428 106.041 4.916 106.629 4.916Z" fill="black"/>
</svg>
